<?xml version="1.0" standalone="no"?>
<!DOCTYPE svg PUBLIC "-//W3C//DTD SVG 20010904//EN"
 "http://www.w3.org/TR/2001/REC-SVG-20010904/DTD/svg10.dtd">
<svg version="1.0" xmlns="http://www.w3.org/2000/svg"
 width="40.000000pt" height="40.000000pt" viewBox="0 0 40.000000 40.000000"
 preserveAspectRatio="xMidYMid meet">

<g transform="translate(0.000000,40.000000) scale(0.100000,-0.100000)"
fill="#000000" stroke="none">
<path d="M62 388 c-17 -17 -17 -359 0 -376 17 -17 259 -17 276 0 7 7 12 34 12
61 0 43 -2 48 -15 37 -8 -7 -15 -28 -15 -46 l0 -34 -120 0 -120 0 0 170 0 170
120 0 120 0 0 -34 c0 -18 7 -39 15 -46 13 -11 15 -6 15 37 0 27 -5 54 -12 61
-17 17 -259 17 -276 0z"/>
<path d="M250 276 c0 -23 -4 -25 -52 -28 l-53 -3 0 -45 0 -45 53 -3 c48 -3 52
-5 52 -28 0 -13 3 -24 8 -24 4 0 32 23 62 50 l55 50 -55 50 c-30 27 -58 50
-62 50 -5 0 -8 -11 -8 -24z"/>
</g>
</svg>
